<svg width="21" height="19" viewBox="0 0 21 19" fill="none" xmlns="http://www.w3.org/2000/svg">
<path fill-rule="evenodd" clip-rule="evenodd" d="M20.0799 6.02616H16.0217C14.1332 6.02948 12.6032 7.52118 12.5998 9.36254C12.5973 11.2081 14.1289 12.7064 16.0217 12.7089H20.0834V13.0021C20.0834 16.2213 18.1318 18.125 14.8291 18.125H6.17176C2.86828 18.125 0.916687 16.2213 0.916687 13.0021V5.99045C0.916687 2.77118 2.86828 0.875 6.17176 0.875H14.8257C18.1284 0.875 20.0799 2.77118 20.0799 5.99045V6.02616ZM5.4587 6.01878H10.8637H10.8671H10.8739C11.2786 6.01712 11.6057 5.69569 11.604 5.30034C11.6023 4.90582 11.2717 4.58689 10.8671 4.58855H5.4587C5.05663 4.59021 4.73037 4.90832 4.72866 5.30117C4.72696 5.69569 5.05407 6.01712 5.4587 6.01878Z" fill="#9796A1"/>
</svg>
