<svg width="21" height="18" viewBox="0 0 21 18" fill="none" xmlns="http://www.w3.org/2000/svg">
<path d="M8.30606 17.494C7.7186 17.494 7.15521 17.27 6.73981 16.8712C6.32442 16.4724 6.09105 15.9316 6.09105 15.3676C6.09105 14.8037 6.32442 14.2628 6.73981 13.864C7.15521 13.4652 7.7186 13.2412 8.30606 13.2412C8.89351 13.2412 9.45691 13.4652 9.8723 13.864C10.2877 14.2628 10.5211 14.8037 10.5211 15.3676C10.5211 15.9316 10.2877 16.4724 9.8723 16.8712C9.45691 17.27 8.89351 17.494 8.30606 17.494ZM16.0586 17.494C15.4711 17.494 14.9077 17.27 14.4923 16.8712C14.0769 16.4724 13.8436 15.9316 13.8436 15.3676C13.8436 14.8037 14.0769 14.2628 14.4923 13.864C14.9077 13.4652 15.4711 13.2412 16.0586 13.2412C16.646 13.2412 17.2094 13.4652 17.6248 13.864C18.0402 14.2628 18.2736 14.8037 18.2736 15.3676C18.2736 15.9316 18.0402 16.4724 17.6248 16.8712C17.2094 17.27 16.646 17.494 16.0586 17.494ZM1.61896 2.52733C1.34249 2.51876 1.08032 2.40731 0.887897 2.21653C0.695477 2.02575 0.587891 1.77061 0.587891 1.50506C0.587891 1.2395 0.695477 0.984358 0.887897 0.793581C1.08032 0.602803 1.34249 0.491349 1.61896 0.482788L2.8937 0.482788C3.89266 0.482788 4.75651 1.14835 4.97358 2.08397L6.36128 8.08255C6.57835 9.01817 7.44221 9.68374 8.44117 9.68374H16.7607L18.3577 3.54906H8.00814C7.73427 3.53706 7.47575 3.42418 7.28636 3.23388C7.09697 3.04358 6.99129 2.79052 6.99129 2.52733C6.99129 2.26413 7.09697 2.01107 7.28636 1.82077C7.47575 1.63047 7.73427 1.51759 8.00814 1.50559H18.3577C18.6815 1.5055 19.001 1.57627 19.292 1.71252C19.583 1.84878 19.8378 2.04693 20.0371 2.29192C20.2363 2.5369 20.3747 2.82227 20.4418 3.12633C20.509 3.43039 20.503 3.74513 20.4243 4.04664L18.8273 10.1792C18.7122 10.6217 18.4462 11.0145 18.0718 11.2952C17.6973 11.5759 17.2358 11.7283 16.7607 11.7283H8.44117C7.47188 11.7284 6.53153 11.4111 5.77543 10.8289C5.01933 10.2467 4.49269 9.43429 4.2825 8.52591L2.8937 2.52733H1.61896Z" fill="black"/>
</svg>
