<svg width="21" height="19" viewBox="0 0 21 19" fill="none" xmlns="http://www.w3.org/2000/svg">
<path opacity="0.4" d="M20.083 5.71725V13.2827C20.0875 14.5639 19.5818 15.7943 18.6774 16.7027C17.7729 17.611 16.544 18.1227 15.2616 18.125H5.76363C4.47892 18.1272 3.24606 17.619 2.33684 16.7122C1.42761 15.8055 0.916685 14.5747 0.916687 13.2912V5.71725C0.917387 5.15363 1.01834 4.59462 1.21483 4.06629C1.90719 2.15175 3.72599 0.875736 5.76363 0.875001H15.236C17.2985 0.873849 19.135 2.17898 19.8104 4.12586C19.9978 4.63524 20.0902 5.17461 20.083 5.71725Z" fill="#9796A1"/>
<path d="M19.8105 4.13437L19.7167 4.21096C17.9535 5.58109 12.2462 10.168 12.2462 10.168C11.2537 10.9743 9.83124 10.9743 8.83882 10.168C8.83882 10.168 3.16561 5.5896 1.40231 4.21947L1.2149 4.0748C1.90442 2.1569 3.72387 0.877028 5.7637 0.875H15.2361C17.3008 0.875101 19.138 2.18413 19.8105 4.13437Z" fill="#9796A1"/>
</svg>
