<svg width="56" height="59" viewBox="0 0 56 59" fill="none" xmlns="http://www.w3.org/2000/svg">
<path d="M24.1191 9.17549L47.3605 32.4169C48.4345 33.4909 48.4345 35.2523 47.3605 36.3478C46.2865 37.4218 44.5466 37.4432 43.4511 36.3692L43.4296 36.3478C42.3556 35.2952 40.6372 35.3167 39.5632 36.3692L26.3315 49.601C25.2575 50.675 23.5176 50.675 22.4436 49.601C21.3696 48.5269 21.3696 46.7871 22.4436 45.7131L35.7398 32.4169C36.7708 31.3859 36.7708 29.6889 35.7398 28.6579L35.6109 28.529C34.5799 27.498 32.8829 27.498 31.8519 28.529L12.6272 47.7537C11.5532 48.8277 9.81334 48.8277 8.73934 47.7537C8.20234 47.2167 7.94458 46.5078 7.94458 45.8205C7.94458 45.1116 8.20234 44.4243 8.73934 43.8873L27.921 24.7056C28.458 24.1686 28.7158 23.4597 28.7158 22.7724C28.7158 22.0635 28.458 21.3762 27.921 20.8392C26.847 19.7652 25.1071 19.7652 24.0331 20.8392L14.7538 30.1185C13.6798 31.1925 11.9399 31.1925 10.8659 30.1185C10.3289 29.5815 10.0711 28.8727 10.0711 28.1853C10.0711 27.4765 10.3503 26.7891 10.8659 26.2521L20.2097 16.9083C21.2407 15.8773 21.2407 14.1803 20.2097 13.1493L20.1667 13.1063C19.6297 12.5693 19.3505 11.8605 19.3505 11.1517C19.3505 10.4428 19.6297 9.73397 20.1667 9.19697C21.2837 8.10148 23.0451 8.10148 24.1191 9.17549Z" fill="#FE724C"/>
<path d="M48.9272 7.62891C54.6194 13.3211 55.2853 22.1279 50.9248 28.5505C50.0227 29.8822 48.1324 30.0756 46.9725 28.9371L27.619 9.58359C26.4805 8.44515 26.6524 6.55491 28.0056 5.63126C34.4282 1.27081 43.235 1.93669 48.9272 7.62891Z" fill="#FE724C"/>
<path d="M53.9255 6.46998C54.9908 5.40465 54.9908 3.67741 53.9255 2.61209C52.8602 1.54676 51.1329 1.54676 50.0676 2.61209C49.0023 3.67742 49.0023 5.40465 50.0676 6.46998C51.1329 7.5353 52.8602 7.53531 53.9255 6.46998Z" fill="#FE724C"/>
<rect x="1.79749" y="35.5944" width="6.5122" height="5.44227" rx="2.72114" transform="rotate(-45 1.79749 35.5944)" fill="#FE724C"/>
<rect y="52.671" width="6.5122" height="5.44227" rx="2.72114" transform="rotate(-45 0 52.671)" fill="#FE724C"/>
<rect x="13.4816" y="54.4686" width="6.5122" height="5.44227" rx="2.72114" transform="rotate(-45 13.4816 54.4686)" fill="#FE724C"/>
</svg>
