<svg width="15" height="18" viewBox="0 0 15 18" fill="none" xmlns="http://www.w3.org/2000/svg">
<path fill-rule="evenodd" clip-rule="evenodd" d="M4.17616 1.81441C6.26998 0.59781 8.84363 0.619074 10.9178 1.87011C12.9716 3.14663 14.2198 5.42484 14.2082 7.87556C14.1604 10.3102 12.8219 12.5988 11.1488 14.3679C10.1832 15.3936 9.10294 16.3006 7.93016 17.0704C7.80938 17.1402 7.67707 17.187 7.53978 17.2083C7.40764 17.2027 7.27895 17.1637 7.16533 17.0947C5.37485 15.9381 3.80405 14.4618 2.52851 12.7367C1.46117 11.2967 0.85478 9.55701 0.791688 7.75382C0.790303 5.29841 2.08234 3.03101 4.17616 1.81441ZM5.38613 8.76992C5.73834 9.63822 6.56969 10.2046 7.49201 10.2046C8.09624 10.2089 8.67707 9.96692 9.10508 9.53246C9.53309 9.098 9.77273 8.5072 9.77058 7.8917C9.77381 6.9522 9.2207 6.10339 8.36952 5.74158C7.51833 5.37977 6.53697 5.57634 5.88365 6.2395C5.23033 6.90267 5.03392 7.90161 5.38613 8.76992Z" fill="#9796A1"/>
</svg>
