<svg width="19" height="21" viewBox="0 0 19 21" fill="none" xmlns="http://www.w3.org/2000/svg">
<path opacity="0.4" d="M9.50008 11.5647C12.4773 11.5647 14.8908 9.18107 14.8908 6.24067C14.8908 3.30026 12.4773 0.916595 9.50008 0.916595C6.52287 0.916595 4.10938 3.30026 4.10938 6.24067C4.10938 9.18107 6.52287 11.5647 9.50008 11.5647Z" fill="#9796A1"/>
<path d="M18.1156 16.8975C18.1205 16.8217 18.1205 16.7457 18.1156 16.6699C18.0943 16.3899 18.0148 16.1164 17.8817 15.8648C17.3577 14.8408 15.8885 14.3769 14.6626 14.1144C13.788 13.9323 12.8994 13.8153 12.005 13.7643L11.0692 13.6943H10.6481H10.1241H8.87017H8.34614H7.92504L6.98926 13.7643C6.09491 13.8153 5.20627 13.9323 4.33166 14.1144C3.10579 14.3419 1.63663 14.8145 1.11259 15.8648C0.979442 16.1164 0.899981 16.3899 0.878647 16.6699C0.873784 16.7457 0.873784 16.8217 0.878647 16.8975C0.874157 16.9733 0.874157 17.0492 0.878647 17.125C0.9041 17.4027 0.986717 17.6731 1.12195 17.9215C1.64598 18.9454 3.11515 19.4093 4.34102 19.6718C5.21726 19.8454 6.10522 19.9624 6.99862 20.0219L7.9344 20.0832H8.15898H8.3555H10.6575H10.854H11.0786L12.0144 20.0219C12.9078 19.9624 13.7957 19.8454 14.672 19.6718C15.8979 19.4355 17.367 18.9717 17.8911 17.9215C18.02 17.6653 18.0992 17.3897 18.125 17.1075C18.1262 17.0374 18.1231 16.9673 18.1156 16.8975Z" fill="#9796A1"/>
</svg>
